<svg width="74" height="74" viewBox="0 0 74 74" fill="none" xmlns="http://www.w3.org/2000/svg">
<circle cx="37" cy="37" r="37" fill="#42489E"/>
<path fill-rule="evenodd" clip-rule="evenodd" d="M18 32C18 27.5817 21.5817 24 26 24H49C53.4183 24 57 27.5817 57 32L57 33.3134C54.4282 33.3134 52.3433 35.3983 52.3433 37.9701C52.3433 40.542 54.4282 42.6268 57 42.6268L57 43.9403C57 48.3586 53.4183 51.9403 49 51.9403H26C21.5817 51.9403 18 48.3586 18 43.9403V42.4801C18.3721 42.5759 18.7622 42.6268 19.1642 42.6268C21.736 42.6268 23.8209 40.542 23.8209 37.9701C23.8209 35.3983 21.736 33.3134 19.1642 33.3134C18.7622 33.3134 18.3721 33.3643 18 33.4601V32Z" fill="white"/>
<path d="M37.5 28.0746L39.6563 34.7111L46.6344 34.7111L40.989 38.8127L43.1454 45.4492L37.5 41.3476L31.8546 45.4492L34.011 38.8127L28.3656 34.7111L35.3436 34.7111L37.5 28.0746Z" fill="#42489E"/>
</svg>
