<svg width="74" height="74" viewBox="0 0 74 74" fill="none" xmlns="http://www.w3.org/2000/svg">
<circle cx="37" cy="37" r="37" fill="#42489E"/>
<path d="M50.3684 27.5263H43.8421V24.2632C43.8421 22.4521 42.39 21 40.5789 21H34.0526C32.2416 21 30.7895 22.4521 30.7895 24.2632V27.5263H24.2632C22.4521 27.5263 21.0163 28.9784 21.0163 30.7895L21 48.7368C21 50.5479 22.4521 52 24.2632 52H50.3684C52.1795 52 53.6316 50.5479 53.6316 48.7368V30.7895C53.6316 28.9784 52.1795 27.5263 50.3684 27.5263ZM40.5789 27.5263H34.0526V24.2632H40.5789V27.5263Z" fill="white"/>
<path d="M33.92 43.3711L29.447 39.023L27.5263 40.8901L33.92 47.1052L47.1053 34.2881L45.1846 32.421L33.92 43.3711Z" fill="#42489E"/>
</svg>
